%FSLAX33Y33*%
%MOMM*%
%AMRect-W1400000-H1400000-RO0.500*
21,1,1.4,1.4,0.,0.,270*%
%ADD10C,0.508*%
%ADD11C,1.3*%
%ADD12R,1.82X1.82*%
%ADD13C,1.82*%
%ADD14C,5.5*%
%ADD15R,2.049999X2.049999*%
%ADD16C,2.049999*%
%ADD17C,1.6*%
%ADD18R,2.X2.*%
%ADD19C,2.*%
%ADD20C,1.4*%
%ADD21Rect-W1400000-H1400000-RO0.500*%
%ADD22C,3.*%
D10*
%LNbottom copper_traces*%
G01*
X152460Y1690D02*
X150000Y1690D01*
X147828Y23876D02*
X134284Y23876D01*
X154750Y27770D02*
X150000Y23020D01*
D11*
X10960Y18500D02*
X22140Y18500D01*
D10*
X58561Y6110D02*
X59944Y7493D01*
D11*
X25908Y11190D02*
X143408Y11190D01*
D10*
X106666Y6110D02*
X105410Y7366D01*
D11*
X10960Y13500D02*
X23598Y13500D01*
X25908Y11190*
D10*
X134270Y13730D02*
X143920Y13730D01*
X66802Y6110D02*
X99074Y6110D01*
X65419Y7493D02*
X66802Y6110D01*
X106666Y6110D02*
X134270Y6110D01*
X13500Y3500D02*
X10960Y3500D01*
X25273Y7493D02*
X19974Y7493D01*
X152210Y12190D02*
X150000Y12190D01*
X26656Y6110D02*
X58561Y6110D01*
X154750Y14730D02*
X152210Y12190D01*
D11*
X145288Y9310D02*
X150000Y9310D01*
D10*
X16040Y3709D02*
X13500Y3709D01*
X26656Y6110D02*
X25273Y7493D01*
D11*
X20650Y23890D02*
X16040Y28500D01*
D10*
X16190Y3709D02*
X19974Y7493D01*
X150000Y26048D02*
X147828Y23876D01*
X10960Y8580D02*
X13420Y8580D01*
D11*
X20650Y23890D02*
X134270Y23890D01*
D10*
X13500Y8500D02*
X16040Y8500D01*
X150000Y30310D02*
X150000Y26048D01*
D11*
X26910Y13730D02*
X134270Y13730D01*
X10960Y28500D02*
X16040Y28500D01*
X22140Y18500D02*
X26910Y13730D01*
D10*
X100330Y7366D02*
X99074Y6110D01*
X105410Y7366D02*
X100330Y7366D01*
X59944Y7493D02*
X65419Y7493D01*
X16190Y8650D02*
X134270Y8650D01*
X150000Y19810D02*
X143920Y13730D01*
D11*
X143408Y11190D02*
X145288Y9310D01*
D10*
X155000Y4230D02*
X152460Y1690D01*
%LNbottom copper component 0b7acb794d0bcb3e*%
D12*
X10960Y28500D03*
D13*
X16040Y28500D03*
%LNbottom copper component f1ab7fb64510febf*%
D14*
X143000Y4000D03*
%LNbottom copper component 0ab80d7a38d7a1af*%
D15*
X71730Y23890D03*
D16*
X71730Y21350D03*
X71730Y18810D03*
X71730Y16270D03*
X71730Y13730D03*
X71730Y11190D03*
X71730Y8650D03*
X71730Y6110D03*
X74270Y23890D03*
X74270Y21350D03*
X74270Y18810D03*
X74270Y16270D03*
X74270Y13730D03*
X74270Y11190D03*
X74270Y8650D03*
X74270Y6110D03*
%LNbottom copper component d89052fe60ae9209*%
D14*
X143000Y28000D03*
%LNbottom copper component 145d1bb3f168432e*%
D12*
X10960Y8580D03*
D13*
X16040Y8580D03*
%LNbottom copper component 88341b5092423bc0*%
D15*
X131730Y23890D03*
D16*
X131730Y21350D03*
X131730Y18810D03*
X131730Y16270D03*
X131730Y13730D03*
X131730Y11190D03*
X131730Y8650D03*
X131730Y6110D03*
X134270Y23890D03*
X134270Y21350D03*
X134270Y18810D03*
X134270Y16270D03*
X134270Y13730D03*
X134270Y11190D03*
X134270Y8650D03*
X134270Y6110D03*
%LNbottom copper component bcd92e7181fbf858*%
D12*
X10960Y13500D03*
D13*
X16040Y13500D03*
%LNbottom copper component 7dae58d331bba13f*%
D17*
X150000Y19810D03*
X150000Y12190D03*
%LNbottom copper component 0b2541a5dc53c73f*%
D14*
X23000Y4000D03*
%LNbottom copper component ccc5b3e91020d4a4*%
D15*
X51730Y23890D03*
D16*
X51730Y21350D03*
X51730Y18810D03*
X51730Y16270D03*
X51730Y13730D03*
X51730Y11190D03*
X51730Y8650D03*
X51730Y6110D03*
X54270Y23890D03*
X54270Y21350D03*
X54270Y18810D03*
X54270Y16270D03*
X54270Y13730D03*
X54270Y11190D03*
X54270Y8650D03*
X54270Y6110D03*
%LNbottom copper component f0989937e0df849d*%
D17*
X150000Y9310D03*
X150000Y1690D03*
%LNbottom copper component a8764a76282b0ccc*%
D18*
X13500Y28500D03*
D19*
X13500Y23500D03*
X13500Y18500D03*
X13500Y13500D03*
X13500Y8500D03*
X13500Y3500D03*
%LNbottom copper component 7f65e4421f066a7b*%
D15*
X31730Y23890D03*
D16*
X31730Y21350D03*
X31730Y18810D03*
X31730Y16270D03*
X31730Y13730D03*
X31730Y11190D03*
X31730Y8650D03*
X31730Y6110D03*
X34270Y23890D03*
X34270Y21350D03*
X34270Y18810D03*
X34270Y16270D03*
X34270Y13730D03*
X34270Y11190D03*
X34270Y8650D03*
X34270Y6110D03*
%LNbottom copper component 38162f618b9ac868*%
D14*
X103000Y28000D03*
%LNbottom copper component 776d6d4ab46e2070*%
D20*
X154750Y14730D03*
D21*
X154750Y17270D03*
%LNbottom copper component 4bd1d0b04df16f9b*%
D14*
X63000Y28000D03*
%LNbottom copper component 1782c89ae87da04e*%
D15*
X91730Y23890D03*
D16*
X91730Y21350D03*
X91730Y18810D03*
X91730Y16270D03*
X91730Y13730D03*
X91730Y11190D03*
X91730Y8650D03*
X91730Y6110D03*
X94270Y23890D03*
X94270Y21350D03*
X94270Y18810D03*
X94270Y16270D03*
X94270Y13730D03*
X94270Y11190D03*
X94270Y8650D03*
X94270Y6110D03*
%LNbottom copper component 8578cc6612424d73*%
D12*
X10960Y3500D03*
D13*
X16040Y3500D03*
%LNbottom copper component 5a27114fed002667*%
D20*
X154750Y25230D03*
D21*
X154750Y27770D03*
%LNbottom copper component 6b99a60343372a19*%
D14*
X23000Y28000D03*
%LNbottom copper component 9801856172f08fe0*%
D22*
X180340Y43561D03*
X180340Y38481D03*
X180340Y33401D03*
X180340Y28321D03*
%LNbottom copper component 3cbb6c8d5c864de3*%
D14*
X103000Y4000D03*
%LNbottom copper component 47fb3bc1e1c161d0*%
D20*
X155000Y4230D03*
D21*
X155000Y6770D03*
%LNbottom copper component 2f60db66613999d8*%
D12*
X10960Y23500D03*
D13*
X16040Y23500D03*
%LNbottom copper component d8a8b9029d789fe8*%
D17*
X150000Y30310D03*
X150000Y22690D03*
%LNbottom copper component 98e62bbff07fcb3d*%
D14*
X63000Y4000D03*
%LNbottom copper component 2dc3ffc5ddd84451*%
D12*
X10960Y18500D03*
D13*
X16040Y18500D03*
%LNbottom copper component 611c1627da94dc28*%
D15*
X111730Y23890D03*
D16*
X111730Y21350D03*
X111730Y18810D03*
X111730Y16270D03*
X111730Y13730D03*
X111730Y11190D03*
X111730Y8650D03*
X111730Y6110D03*
X114270Y23890D03*
X114270Y21350D03*
X114270Y18810D03*
X114270Y16270D03*
X114270Y13730D03*
X114270Y11190D03*
X114270Y8650D03*
X114270Y6110D03*
M02*