<?xml version="1.0" encoding="utf-8" ?>
<svg baseProfile="tiny" height="123.172437934" version="1.2" width="569.629119934" xmlns="http://www.w3.org/2000/svg" xmlns:ev="http://www.w3.org/2001/xml-events" xmlns:xlink="http://www.w3.org/1999/xlink"><defs /><g id="paths" stroke="green"><path d="M 4.893306967,118.279130967 L 564.735812967,118.279130967 L 564.735812967,4.893306967 L 4.893306967,4.893306967 L 4.893306967,118.279130967 Z" fill-opacity="0" stroke-linejoin="round" stroke-width="1.0" /></g><g fill="red" id="top_parts" stroke="red"><line stroke-linecap="round" stroke-width="0.5" x1="40.6807" x2="65.8382" y1="13.8047" y2="13.8047" /><line stroke-linecap="round" stroke-width="0.5" x1="65.8382" x2="65.8382" y1="13.8047" y2="20.9622" /><line stroke-linecap="round" stroke-width="0.5" x1="65.8382" x2="40.6807" y1="20.9622" y2="20.9622" /><line stroke-linecap="round" stroke-width="0.5" x1="40.6807" x2="40.6807" y1="20.9622" y2="13.8047" /><text font-family="monospace" font-size="2" stroke-width="0.1" text-anchor="middle" x="53.259447517" y="17.383464142">J2</text><line stroke-linecap="round" stroke-width="0.5" x1="249.0272" x2="279.1453" y1="15.6118" y2="15.6118" /><line stroke-linecap="round" stroke-width="0.5" x1="279.1453" x2="279.1453" y1="15.6118" y2="114.8244" /><line stroke-linecap="round" stroke-width="0.5" x1="279.1453" x2="249.0272" y1="114.8244" y2="114.8244" /><line stroke-linecap="round" stroke-width="0.5" x1="249.0272" x2="249.0272" y1="114.8244" y2="15.6118" /><text font-family="monospace" font-size="2" stroke-width="0.1" text-anchor="middle" x="264.086214017" y="65.218108642">J13</text><line stroke-linecap="round" stroke-width="0.5" x1="40.6807" x2="65.8382" y1="84.3874" y2="84.3874" /><line stroke-linecap="round" stroke-width="0.5" x1="65.8382" x2="65.8382" y1="84.3874" y2="91.5449" /><line stroke-linecap="round" stroke-width="0.5" x1="65.8382" x2="40.6807" y1="91.5449" y2="91.5449" /><line stroke-linecap="round" stroke-width="0.5" x1="40.6807" x2="40.6807" y1="91.5449" y2="84.3874" /><text font-family="monospace" font-size="2" stroke-width="0.1" text-anchor="middle" x="53.259447517" y="87.966139582">J6</text><line stroke-linecap="round" stroke-width="0.5" x1="461.6256" x2="491.7437" y1="15.6118" y2="15.6118" /><line stroke-linecap="round" stroke-width="0.5" x1="491.7437" x2="491.7437" y1="15.6118" y2="114.8244" /><line stroke-linecap="round" stroke-width="0.5" x1="491.7437" x2="461.6256" y1="114.8244" y2="114.8244" /><line stroke-linecap="round" stroke-width="0.5" x1="461.6256" x2="461.6256" y1="114.8244" y2="15.6118" /><text font-family="monospace" font-size="2" stroke-width="0.1" text-anchor="middle" x="476.684634017" y="65.218108642">J15</text><line stroke-linecap="round" stroke-width="0.5" x1="40.6807" x2="65.8382" y1="66.9543" y2="66.9543" /><line stroke-linecap="round" stroke-width="0.5" x1="65.8382" x2="65.8382" y1="66.9543" y2="74.1118" /><line stroke-linecap="round" stroke-width="0.5" x1="65.8382" x2="40.6807" y1="74.1118" y2="74.1118" /><line stroke-linecap="round" stroke-width="0.5" x1="40.6807" x2="40.6807" y1="74.1118" y2="66.9543" /><text font-family="monospace" font-size="2" stroke-width="0.1" text-anchor="middle" x="53.2594439737" y="70.533069142">J5</text><line stroke-linecap="round" stroke-width="0.5" x1="542.3967" x2="542.3967" y1="44.4543" y2="78.8953" /><line stroke-linecap="round" stroke-width="0.5" x1="542.3967" x2="531.445" y1="78.8953" y2="78.8953" /><line stroke-linecap="round" stroke-width="0.5" x1="531.445" x2="531.445" y1="78.8953" y2="44.4543" /><line stroke-linecap="round" stroke-width="0.5" x1="531.445" x2="542.3967" y1="44.4543" y2="44.4543" /><text font-family="monospace" font-size="2" stroke-width="0.1" text-anchor="middle" x="536.920853017" y="61.674801642">R2</text><line stroke-linecap="round" stroke-width="0.5" x1="178.161" x2="208.2791" y1="15.6118" y2="15.6118" /><line stroke-linecap="round" stroke-width="0.5" x1="208.2791" x2="208.2791" y1="15.6118" y2="114.8244" /><line stroke-linecap="round" stroke-width="0.5" x1="208.2791" x2="178.161" y1="114.8244" y2="114.8244" /><line stroke-linecap="round" stroke-width="0.5" x1="178.161" x2="178.161" y1="114.8244" y2="15.6118" /><text font-family="monospace" font-size="2" stroke-width="0.1" text-anchor="middle" x="193.220074017" y="65.218108642">J12</text><line stroke-linecap="round" stroke-width="0.5" x1="542.3967" x2="542.3967" y1="81.6591" y2="116.1" /><line stroke-linecap="round" stroke-width="0.5" x1="542.3967" x2="531.445" y1="116.1" y2="116.1" /><line stroke-linecap="round" stroke-width="0.5" x1="531.445" x2="531.445" y1="116.1" y2="81.6591" /><line stroke-linecap="round" stroke-width="0.5" x1="531.445" x2="542.3967" y1="81.6591" y2="81.6591" /><text font-family="monospace" font-size="2" stroke-width="0.1" text-anchor="middle" x="536.920853017" y="98.879525142">R3</text><line stroke-linecap="round" stroke-width="0.5" x1="35.8972" x2="70.6217" y1="6.665" y2="6.665" /><line stroke-linecap="round" stroke-width="0.5" x1="70.6217" x2="70.6217" y1="6.665" y2="116.6846" /><line stroke-linecap="round" stroke-width="0.5" x1="70.6217" x2="35.8972" y1="116.6846" y2="116.6846" /><line stroke-linecap="round" stroke-width="0.5" x1="35.8972" x2="35.8972" y1="116.6846" y2="6.665" /><text font-family="monospace" font-size="2" stroke-width="0.1" text-anchor="middle" x="53.259447517" y="61.674801642">J1</text><line stroke-linecap="round" stroke-width="0.5" x1="107.2949" x2="137.413" y1="15.6118" y2="15.6118" /><line stroke-linecap="round" stroke-width="0.5" x1="137.413" x2="137.413" y1="15.6118" y2="114.8244" /><line stroke-linecap="round" stroke-width="0.5" x1="137.413" x2="107.2949" y1="114.8244" y2="114.8244" /><line stroke-linecap="round" stroke-width="0.5" x1="107.2949" x2="107.2949" y1="114.8244" y2="15.6118" /><text font-family="monospace" font-size="2" stroke-width="0.1" text-anchor="middle" x="122.353934017" y="65.218108642">J11</text><text font-family="monospace" font-size="2" stroke-width="0.1" text-anchor="middle" x="553.751561267" y="61.674801642">D2</text><line stroke-linecap="round" stroke-width="0.5" x1="319.8933" x2="350.0114" y1="15.6118" y2="15.6118" /><line stroke-linecap="round" stroke-width="0.5" x1="350.0114" x2="350.0114" y1="15.6118" y2="114.8244" /><line stroke-linecap="round" stroke-width="0.5" x1="350.0114" x2="319.8933" y1="114.8244" y2="114.8244" /><line stroke-linecap="round" stroke-width="0.5" x1="319.8933" x2="319.8933" y1="114.8244" y2="15.6118" /><text font-family="monospace" font-size="2" stroke-width="0.1" text-anchor="middle" x="334.952354017" y="65.218108642">J14</text><line stroke-linecap="round" stroke-width="0.5" x1="40.6807" x2="65.8382" y1="102.3874" y2="102.3874" /><line stroke-linecap="round" stroke-width="0.5" x1="65.8382" x2="65.8382" y1="102.3874" y2="109.5449" /><line stroke-linecap="round" stroke-width="0.5" x1="65.8382" x2="40.6807" y1="109.5449" y2="109.5449" /><line stroke-linecap="round" stroke-width="0.5" x1="40.6807" x2="40.6807" y1="109.5449" y2="102.3874" /><text font-family="monospace" font-size="2" stroke-width="0.1" text-anchor="middle" x="53.259447517" y="105.966139142">J7</text><text font-family="monospace" font-size="2" stroke-width="0.1" text-anchor="middle" x="553.751561267" y="24.470078142">D1</text><line stroke-linecap="round" stroke-width="0.5" x1="627.9838" x2="660.8657" y1="-51.9626" y2="-51.9626" /><line stroke-linecap="round" stroke-width="0.5" x1="660.8657" x2="660.8657" y1="-51.9626" y2="33.998" /><line stroke-linecap="round" stroke-width="0.5" x1="660.8657" x2="627.9838" y1="33.998" y2="33.998" /><line stroke-linecap="round" stroke-width="0.5" x1="627.9838" x2="627.9838" y1="33.998" y2="-51.9626" /><text font-family="monospace" font-size="2" stroke-width="0.1" text-anchor="middle" x="644.424787397" y="-8.982283245">J8</text><text font-family="monospace" font-size="2" stroke-width="0.1" text-anchor="middle" x="554.637388017" y="98.879525142">D3</text><line stroke-linecap="round" stroke-width="0.5" x1="40.6807" x2="65.8382" y1="31.5213" y2="31.5213" /><line stroke-linecap="round" stroke-width="0.5" x1="65.8382" x2="65.8382" y1="31.5213" y2="38.6787" /><line stroke-linecap="round" stroke-width="0.5" x1="65.8382" x2="40.6807" y1="38.6787" y2="38.6787" /><line stroke-linecap="round" stroke-width="0.5" x1="40.6807" x2="40.6807" y1="38.6787" y2="31.5213" /><text font-family="monospace" font-size="2" stroke-width="0.1" text-anchor="middle" x="53.2594439737" y="35.099999142">J3</text><line stroke-linecap="round" stroke-width="0.5" x1="542.3967" x2="542.3967" y1="7.2496" y2="41.6906" /><line stroke-linecap="round" stroke-width="0.5" x1="542.3967" x2="531.445" y1="41.6906" y2="41.6906" /><line stroke-linecap="round" stroke-width="0.5" x1="531.445" x2="531.445" y1="41.6906" y2="7.2496" /><line stroke-linecap="round" stroke-width="0.5" x1="531.445" x2="542.3967" y1="7.2496" y2="7.2496" /><text font-family="monospace" font-size="2" stroke-width="0.1" text-anchor="middle" x="536.920853017" y="24.470078142">R1</text><line stroke-linecap="round" stroke-width="0.5" x1="40.6807" x2="65.8382" y1="49.2378" y2="49.2378" /><line stroke-linecap="round" stroke-width="0.5" x1="65.8382" x2="65.8382" y1="49.2378" y2="56.3953" /><line stroke-linecap="round" stroke-width="0.5" x1="65.8382" x2="40.6807" y1="56.3953" y2="56.3953" /><line stroke-linecap="round" stroke-width="0.5" x1="40.6807" x2="40.6807" y1="56.3953" y2="49.2378" /><text font-family="monospace" font-size="2" stroke-width="0.1" text-anchor="middle" x="53.2594439737" y="52.816534142">J4</text><line stroke-linecap="round" stroke-width="0.5" x1="390.7594" x2="420.8775" y1="15.6118" y2="15.6118" /><line stroke-linecap="round" stroke-width="0.5" x1="420.8775" x2="420.8775" y1="15.6118" y2="114.8244" /><line stroke-linecap="round" stroke-width="0.5" x1="420.8775" x2="390.7594" y1="114.8244" y2="114.8244" /><line stroke-linecap="round" stroke-width="0.5" x1="390.7594" x2="390.7594" y1="114.8244" y2="15.6118" /><text font-family="monospace" font-size="2" stroke-width="0.1" text-anchor="middle" x="405.818494017" y="65.218108642">J16</text></g><g fill="blue" id="bottom_parts" stroke="blue" /></svg>