<?xml version="1.0" encoding="utf-8" ?>
<svg baseProfile="tiny" height="171.442909525" version="1.2" width="656.63384405" xmlns="http://www.w3.org/2000/svg" xmlns:ev="http://www.w3.org/2001/xml-events" xmlns:xlink="http://www.w3.org/1999/xlink"><defs /><g id="paths" stroke="blue"><path d="M 12.4015745,141.90944535 L 572.2440805,141.90944535 L 572.2440805,28.52362135 L 12.4015745,28.52362135 L 12.4015745,141.90944535 Z" fill-opacity="0" stroke-linejoin="round" stroke-width="1.0" /></g><g fill="red" id="holes"><circle cx="502.1929" cy="97.8484" r="0.585" stroke-width="0.0" /><circle cx="386.3268" cy="97.8484" r="0.585" stroke-width="0.0" /><circle cx="156.8622" cy="115.8484" r="0.585" stroke-width="0.0" /><circle cx="227.7283" cy="106.8484" r="0.585" stroke-width="0.0" /><circle cx="218.7283" cy="106.8484" r="0.585" stroke-width="0.0" /><circle cx="440.3268" cy="106.8484" r="0.585" stroke-width="0.0" /><circle cx="289.5945" cy="115.8484" r="0.585" stroke-width="0.0" /><circle cx="440.3268" cy="115.8484" r="0.585" stroke-width="0.0" /><circle cx="200.7283" cy="115.8484" r="0.585" stroke-width="0.0" /><circle cx="173.7283" cy="115.8484" r="0.585" stroke-width="0.0" /><circle cx="395.3268" cy="115.8484" r="0.585" stroke-width="0.0" /><circle cx="244.5945" cy="106.8484" r="0.585" stroke-width="0.0" /><circle cx="111.8622" cy="106.8484" r="0.585" stroke-width="0.0" /><circle cx="253.5945" cy="115.8484" r="0.585" stroke-width="0.0" /><circle cx="440.3268" cy="97.8484" r="0.585" stroke-width="0.0" /><circle cx="431.2531" cy="115.898" r="0.585" stroke-width="0.0" /><circle cx="466.1929" cy="106.8484" r="0.585" stroke-width="0.0" /><circle cx="173.7283" cy="106.8484" r="0.585" stroke-width="0.0" /><circle cx="457.1929" cy="106.8484" r="0.585" stroke-width="0.0" /><circle cx="147.8622" cy="106.8484" r="0.585" stroke-width="0.0" /><circle cx="369.4606" cy="97.8484" r="0.585" stroke-width="0.0" /><circle cx="289.5945" cy="106.8484" r="0.585" stroke-width="0.0" /><circle cx="289.5945" cy="97.8484" r="0.585" stroke-width="0.0" /><circle cx="298.5945" cy="97.8484" r="0.585" stroke-width="0.0" /><circle cx="431.3268" cy="97.8484" r="0.585" stroke-width="0.0" /><circle cx="369.4606" cy="106.8484" r="0.585" stroke-width="0.0" /><circle cx="253.5945" cy="97.8484" r="0.585" stroke-width="0.0" /><circle cx="360.4606" cy="106.8484" r="0.585" stroke-width="0.0" /><circle cx="227.7283" cy="97.8484" r="0.585" stroke-width="0.0" /><circle cx="218.7283" cy="97.8484" r="0.585" stroke-width="0.0" /><circle cx="466.1929" cy="115.8484" r="0.585" stroke-width="0.0" /><circle cx="315.4606" cy="115.8484" r="0.585" stroke-width="0.0" /><circle cx="386.3268" cy="106.8484" r="0.585" stroke-width="0.0" /><circle cx="315.4606" cy="97.8484" r="0.585" stroke-width="0.0" /><circle cx="298.5945" cy="106.8484" r="0.585" stroke-width="0.0" /><circle cx="253.5945" cy="106.8484" r="0.585" stroke-width="0.0" /><circle cx="200.7283" cy="106.8484" r="0.585" stroke-width="0.0" /><circle cx="182.7283" cy="115.8484" r="0.585" stroke-width="0.0" /><circle cx="395.3268" cy="106.8484" r="0.585" stroke-width="0.0" /><circle cx="395.3268" cy="97.8484" r="0.585" stroke-width="0.0" /><circle cx="156.8622" cy="97.8484" r="0.585" stroke-width="0.0" /><circle cx="244.5945" cy="97.8484" r="0.585" stroke-width="0.0" /><circle cx="360.4606" cy="97.8484" r="0.585" stroke-width="0.0" /><circle cx="324.4606" cy="106.8484" r="0.585" stroke-width="0.0" /><circle cx="200.7283" cy="97.8484" r="0.585" stroke-width="0.0" /><circle cx="111.8622" cy="115.8484" r="0.585" stroke-width="0.0" /><circle cx="173.7283" cy="97.8484" r="0.585" stroke-width="0.0" /><circle cx="147.8622" cy="115.8484" r="0.585" stroke-width="0.0" /><circle cx="431.3268" cy="106.898" r="0.585" stroke-width="0.0" /><circle cx="298.5945" cy="115.8484" r="0.585" stroke-width="0.0" /><circle cx="147.8622" cy="97.8484" r="0.585" stroke-width="0.0" /><circle cx="324.4606" cy="97.8484" r="0.585" stroke-width="0.0" /><circle cx="457.1929" cy="115.8484" r="0.585" stroke-width="0.0" /><circle cx="466.1929" cy="97.8484" r="0.585" stroke-width="0.0" /><circle cx="156.8622" cy="106.8484" r="0.585" stroke-width="0.0" /><circle cx="111.8622" cy="97.8484" r="0.585" stroke-width="0.0" /><circle cx="457.1929" cy="97.8484" r="0.585" stroke-width="0.0" /><circle cx="315.4606" cy="106.8484" r="0.585" stroke-width="0.0" /><circle cx="324.4606" cy="115.8484" r="0.585" stroke-width="0.0" /><circle cx="218.7283" cy="115.8484" r="0.585" stroke-width="0.0" /><circle cx="182.7283" cy="97.8484" r="0.585" stroke-width="0.0" /><circle cx="182.7283" cy="106.8484" r="0.585" stroke-width="0.0" /><circle cx="360.4606" cy="115.8484" r="0.585" stroke-width="0.0" /><circle cx="51.7677" cy="41.0138" r="2.0728" stroke-width="0.0" /><circle cx="69.7677" cy="41.0138" r="2.0728" stroke-width="0.0" /><circle cx="519.626" cy="127.8248" r="5.6693" stroke-width="0.0" /><circle cx="519.626" cy="42.7854" r="5.6693" stroke-width="0.0" /><circle cx="479.6929" cy="57.3484" r="2.3917" stroke-width="0.0" /><circle cx="479.6929" cy="66.3484" r="2.3917" stroke-width="0.0" /><circle cx="479.6929" cy="75.3484" r="2.3917" stroke-width="0.0" /><circle cx="479.6929" cy="84.3484" r="2.3917" stroke-width="0.0" /><circle cx="479.6929" cy="93.3484" r="2.3917" stroke-width="0.0" /><circle cx="479.6929" cy="102.3484" r="2.3917" stroke-width="0.0" /><circle cx="479.6929" cy="111.3484" r="2.3917" stroke-width="0.0" /><circle cx="479.6929" cy="120.3484" r="2.3917" stroke-width="0.0" /><circle cx="488.6929" cy="57.3484" r="2.3917" stroke-width="0.0" /><circle cx="488.6929" cy="66.3484" r="2.3917" stroke-width="0.0" /><circle cx="488.6929" cy="75.3484" r="2.3917" stroke-width="0.0" /><circle cx="488.6929" cy="84.3484" r="2.3917" stroke-width="0.0" /><circle cx="488.6929" cy="93.3484" r="2.3917" stroke-width="0.0" /><circle cx="488.6929" cy="102.3484" r="2.3917" stroke-width="0.0" /><circle cx="488.6929" cy="111.3484" r="2.3917" stroke-width="0.0" /><circle cx="488.6929" cy="120.3484" r="2.3917" stroke-width="0.0" /><circle cx="51.7677" cy="111.5965" r="2.0728" stroke-width="0.0" /><circle cx="69.7677" cy="111.5965" r="2.0728" stroke-width="0.0" /><circle cx="51.7677" cy="94.1634" r="2.0728" stroke-width="0.0" /><circle cx="69.7677" cy="94.1634" r="2.0728" stroke-width="0.0" /><circle cx="337.9606" cy="57.3484" r="2.3917" stroke-width="0.0" /><circle cx="337.9606" cy="66.3484" r="2.3917" stroke-width="0.0" /><circle cx="337.9606" cy="75.3484" r="2.3917" stroke-width="0.0" /><circle cx="337.9606" cy="84.3484" r="2.3917" stroke-width="0.0" /><circle cx="337.9606" cy="93.3484" r="2.3917" stroke-width="0.0" /><circle cx="337.9606" cy="102.3484" r="2.3917" stroke-width="0.0" /><circle cx="337.9606" cy="111.3484" r="2.3917" stroke-width="0.0" /><circle cx="337.9606" cy="120.3484" r="2.3917" stroke-width="0.0" /><circle cx="346.9606" cy="57.3484" r="2.3917" stroke-width="0.0" /><circle cx="346.9606" cy="66.3484" r="2.3917" stroke-width="0.0" /><circle cx="346.9606" cy="75.3484" r="2.3917" stroke-width="0.0" /><circle cx="346.9606" cy="84.3484" r="2.3917" stroke-width="0.0" /><circle cx="346.9606" cy="93.3484" r="2.3917" stroke-width="0.0" /><circle cx="346.9606" cy="102.3484" r="2.3917" stroke-width="0.0" /><circle cx="346.9606" cy="111.3484" r="2.3917" stroke-width="0.0" /><circle cx="346.9606" cy="120.3484" r="2.3917" stroke-width="0.0" /><circle cx="544.4291" cy="71.8051" r="1.8602" stroke-width="0.0" /><circle cx="544.4291" cy="98.8051" r="1.8602" stroke-width="0.0" /><circle cx="408.8268" cy="57.3484" r="2.3917" stroke-width="0.0" /><circle cx="408.8268" cy="66.3484" r="2.3917" stroke-width="0.0" /><circle cx="408.8268" cy="75.3484" r="2.3917" stroke-width="0.0" /><circle cx="408.8268" cy="84.3484" r="2.3917" stroke-width="0.0" /><circle cx="408.8268" cy="93.3484" r="2.3917" stroke-width="0.0" /><circle cx="408.8268" cy="102.3484" r="2.3917" stroke-width="0.0" /><circle cx="408.8268" cy="111.3484" r="2.3917" stroke-width="0.0" /><circle cx="408.8268" cy="120.3484" r="2.3917" stroke-width="0.0" /><circle cx="417.8268" cy="57.3484" r="2.3917" stroke-width="0.0" /><circle cx="417.8268" cy="66.3484" r="2.3917" stroke-width="0.0" /><circle cx="417.8268" cy="75.3484" r="2.3917" stroke-width="0.0" /><circle cx="417.8268" cy="84.3484" r="2.3917" stroke-width="0.0" /><circle cx="417.8268" cy="93.3484" r="2.3917" stroke-width="0.0" /><circle cx="417.8268" cy="102.3484" r="2.3917" stroke-width="0.0" /><circle cx="417.8268" cy="111.3484" r="2.3917" stroke-width="0.0" /><circle cx="417.8268" cy="120.3484" r="2.3917" stroke-width="0.0" /><circle cx="94.4291" cy="127.8248" r="5.6693" stroke-width="0.0" /><circle cx="196.2283" cy="57.3484" r="2.3917" stroke-width="0.0" /><circle cx="196.2283" cy="66.3484" r="2.3917" stroke-width="0.0" /><circle cx="196.2283" cy="75.3484" r="2.3917" stroke-width="0.0" /><circle cx="196.2283" cy="84.3484" r="2.3917" stroke-width="0.0" /><circle cx="196.2283" cy="93.3484" r="2.3917" stroke-width="0.0" /><circle cx="196.2283" cy="102.3484" r="2.3917" stroke-width="0.0" /><circle cx="196.2283" cy="111.3484" r="2.3917" stroke-width="0.0" /><circle cx="196.2283" cy="120.3484" r="2.3917" stroke-width="0.0" /><circle cx="205.2283" cy="57.3484" r="2.3917" stroke-width="0.0" /><circle cx="205.2283" cy="66.3484" r="2.3917" stroke-width="0.0" /><circle cx="205.2283" cy="75.3484" r="2.3917" stroke-width="0.0" /><circle cx="205.2283" cy="84.3484" r="2.3917" stroke-width="0.0" /><circle cx="205.2283" cy="93.3484" r="2.3917" stroke-width="0.0" /><circle cx="205.2283" cy="102.3484" r="2.3917" stroke-width="0.0" /><circle cx="205.2283" cy="111.3484" r="2.3917" stroke-width="0.0" /><circle cx="205.2283" cy="120.3484" r="2.3917" stroke-width="0.0" /><circle cx="544.4291" cy="109.0098" r="1.8602" stroke-width="0.0" /><circle cx="544.4291" cy="136.0098" r="1.8602" stroke-width="0.0" /><circle cx="60.7677" cy="41.0138" r="2.3031" stroke-width="0.0" /><circle cx="60.7677" cy="58.7303" r="2.3031" stroke-width="0.0" /><circle cx="60.7677" cy="76.4468" r="2.3031" stroke-width="0.0" /><circle cx="60.7677" cy="94.1634" r="2.3031" stroke-width="0.0" /><circle cx="60.7677" cy="111.8799" r="2.3031" stroke-width="0.0" /><circle cx="60.7677" cy="129.5965" r="2.3031" stroke-width="0.0" /><circle cx="267.0945" cy="57.3484" r="2.3917" stroke-width="0.0" /><circle cx="267.0945" cy="66.3484" r="2.3917" stroke-width="0.0" /><circle cx="267.0945" cy="75.3484" r="2.3917" stroke-width="0.0" /><circle cx="267.0945" cy="84.3484" r="2.3917" stroke-width="0.0" /><circle cx="267.0945" cy="93.3484" r="2.3917" stroke-width="0.0" /><circle cx="267.0945" cy="102.3484" r="2.3917" stroke-width="0.0" /><circle cx="267.0945" cy="111.3484" r="2.3917" stroke-width="0.0" /><circle cx="267.0945" cy="120.3484" r="2.3917" stroke-width="0.0" /><circle cx="276.0945" cy="57.3484" r="2.3917" stroke-width="0.0" /><circle cx="276.0945" cy="66.3484" r="2.3917" stroke-width="0.0" /><circle cx="276.0945" cy="75.3484" r="2.3917" stroke-width="0.0" /><circle cx="276.0945" cy="84.3484" r="2.3917" stroke-width="0.0" /><circle cx="276.0945" cy="93.3484" r="2.3917" stroke-width="0.0" /><circle cx="276.0945" cy="102.3484" r="2.3917" stroke-width="0.0" /><circle cx="276.0945" cy="111.3484" r="2.3917" stroke-width="0.0" /><circle cx="276.0945" cy="120.3484" r="2.3917" stroke-width="0.0" /><circle cx="377.8937" cy="42.7854" r="5.6693" stroke-width="0.0" /><circle cx="377.8937" cy="127.8248" r="5.6693" stroke-width="0.0" /><circle cx="562.1457" cy="118.0098" r="1.5945" stroke-width="0.0" /><circle cx="562.1457" cy="127.0098" r="1.5945" stroke-width="0.0" /><circle cx="236.1614" cy="42.7854" r="5.6693" stroke-width="0.0" /><circle cx="94.4291" cy="42.7854" r="5.6693" stroke-width="0.0" /><circle cx="562.1457" cy="80.8051" r="1.5945" stroke-width="0.0" /><circle cx="562.1457" cy="89.8051" r="1.5945" stroke-width="0.0" /><circle cx="125.3622" cy="57.3484" r="2.3917" stroke-width="0.0" /><circle cx="125.3622" cy="66.3484" r="2.3917" stroke-width="0.0" /><circle cx="125.3622" cy="75.3484" r="2.3917" stroke-width="0.0" /><circle cx="125.3622" cy="84.3484" r="2.3917" stroke-width="0.0" /><circle cx="125.3622" cy="93.3484" r="2.3917" stroke-width="0.0" /><circle cx="125.3622" cy="102.3484" r="2.3917" stroke-width="0.0" /><circle cx="125.3622" cy="111.3484" r="2.3917" stroke-width="0.0" /><circle cx="125.3622" cy="120.3484" r="2.3917" stroke-width="0.0" /><circle cx="134.3622" cy="57.3484" r="2.3917" stroke-width="0.0" /><circle cx="134.3622" cy="66.3484" r="2.3917" stroke-width="0.0" /><circle cx="134.3622" cy="75.3484" r="2.3917" stroke-width="0.0" /><circle cx="134.3622" cy="84.3484" r="2.3917" stroke-width="0.0" /><circle cx="134.3622" cy="93.3484" r="2.3917" stroke-width="0.0" /><circle cx="134.3622" cy="102.3484" r="2.3917" stroke-width="0.0" /><circle cx="134.3622" cy="111.3484" r="2.3917" stroke-width="0.0" /><circle cx="134.3622" cy="120.3484" r="2.3917" stroke-width="0.0" /><circle cx="51.7677" cy="58.7303" r="2.0728" stroke-width="0.0" /><circle cx="69.7677" cy="58.7303" r="2.0728" stroke-width="0.0" /><circle cx="236.1614" cy="127.8248" r="5.6693" stroke-width="0.0" /><circle cx="544.4291" cy="34.6004" r="1.8602" stroke-width="0.0" /><circle cx="544.4291" cy="61.6004" r="1.8602" stroke-width="0.0" /><circle cx="51.7677" cy="129.5965" r="2.0728" stroke-width="0.0" /><circle cx="69.7677" cy="129.5965" r="2.0728" stroke-width="0.0" /><circle cx="51.7677" cy="76.4468" r="2.0728" stroke-width="0.0" /><circle cx="69.7677" cy="76.4468" r="2.0728" stroke-width="0.0" /><circle cx="562.1457" cy="43.6004" r="1.5945" stroke-width="0.0" /><circle cx="562.1457" cy="52.6004" r="1.5945" stroke-width="0.0" /></g><g id="rulers" stroke="black"><line stroke-width="1.0" x1="234.3898" x2="376.122" y1="150.8563" y2="150.8563" /><text font-family="monospace" font-size="5" stroke-width="0.3" x="305.25589805" y="155.856295525">40.0000mm</text><text font-family="monospace" font-size="5" stroke-width="0.3" x="305.25589805" y="161.856295525">(Δx=40.0000mm)</text><line stroke-width="1.0" x1="572.5098" x2="12.6673" y1="3.5433" y2="3.5433" /><text font-family="monospace" font-size="5" stroke-width="0.3" x="292.588575525" y="-1.456693">158.0000mm</text><text font-family="monospace" font-size="5" stroke-width="0.3" x="292.588575525" y="4.543307">(Δx=158.0000mm)</text><line stroke-width="1.0" x1="92.6575" x2="234.3898" y1="157.9429" y2="157.9429" /><text font-family="monospace" font-size="5" stroke-width="0.3" x="163.52361805" y="162.942909525">40.0000mm</text><text font-family="monospace" font-size="5" stroke-width="0.3" x="163.52361805" y="168.942909525">(Δx=40.0000mm)</text><line stroke-width="1.0" x1="3.5433" x2="3.5433" y1="28.5236" y2="141.9094" /><text font-family="monospace" font-size="5" stroke-width="0.3" x="8.543307" y="85.21653335">32.0000mm</text><text font-family="monospace" font-size="5" stroke-width="0.3" x="8.543307" y="91.21653335">(Δy=32.0000mm)</text><line stroke-width="1.0" x1="581.6338" x2="581.6338" y1="127.8248" y2="42.7854" /><text font-family="monospace" font-size="5" stroke-width="0.3" x="586.63384405" y="85.305116025">24.0000mm</text><text font-family="monospace" font-size="5" stroke-width="0.3" x="586.63384405" y="91.305116025">(Δy=24.0000mm)</text><line stroke-width="1.0" x1="376.122" x2="517.8543" y1="157.9429" y2="157.9429" /><text font-family="monospace" font-size="5" stroke-width="0.3" x="446.98817805" y="162.942909525">40.0000mm</text><text font-family="monospace" font-size="5" stroke-width="0.3" x="446.98817805" y="168.942909525">(Δx=40.0000mm)</text></g></svg>