<?xml version="1.0" encoding="utf-8" ?>
<svg baseProfile="tiny" height="171.442909525" version="1.2" width="753.809038525" xmlns="http://www.w3.org/2000/svg" xmlns:ev="http://www.w3.org/2001/xml-events" xmlns:xlink="http://www.w3.org/1999/xlink"><defs /><g id="paths" stroke="blue"><path d="M 109.576768975,141.90944535 L 669.419274975,141.90944535 L 669.419274975,28.52362135 L 109.576768975,28.52362135 L 109.576768975,141.90944535 Z" fill-opacity="0" stroke-linejoin="round" stroke-width="1.0" /></g><g fill="red" id="holes"><circle cx="148.9429" cy="41.0138" r="2.0728" stroke-width="0.0" /><circle cx="166.9429" cy="41.0138" r="2.0728" stroke-width="0.0" /><circle cx="616.8012" cy="127.8248" r="5.6693" stroke-width="0.0" /><circle cx="364.2697" cy="57.3484" r="2.3917" stroke-width="0.0" /><circle cx="364.2697" cy="66.3484" r="2.3917" stroke-width="0.0" /><circle cx="364.2697" cy="75.3484" r="2.3917" stroke-width="0.0" /><circle cx="364.2697" cy="84.3484" r="2.3917" stroke-width="0.0" /><circle cx="364.2697" cy="93.3484" r="2.3917" stroke-width="0.0" /><circle cx="364.2697" cy="102.3484" r="2.3917" stroke-width="0.0" /><circle cx="364.2697" cy="111.3484" r="2.3917" stroke-width="0.0" /><circle cx="364.2697" cy="120.3484" r="2.3917" stroke-width="0.0" /><circle cx="373.2697" cy="57.3484" r="2.3917" stroke-width="0.0" /><circle cx="373.2697" cy="66.3484" r="2.3917" stroke-width="0.0" /><circle cx="373.2697" cy="75.3484" r="2.3917" stroke-width="0.0" /><circle cx="373.2697" cy="84.3484" r="2.3917" stroke-width="0.0" /><circle cx="373.2697" cy="93.3484" r="2.3917" stroke-width="0.0" /><circle cx="373.2697" cy="102.3484" r="2.3917" stroke-width="0.0" /><circle cx="373.2697" cy="111.3484" r="2.3917" stroke-width="0.0" /><circle cx="373.2697" cy="120.3484" r="2.3917" stroke-width="0.0" /><circle cx="616.8012" cy="42.7854" r="5.6693" stroke-width="0.0" /><circle cx="148.9429" cy="111.5965" r="2.0728" stroke-width="0.0" /><circle cx="166.9429" cy="111.5965" r="2.0728" stroke-width="0.0" /><circle cx="576.8681" cy="57.3484" r="2.3917" stroke-width="0.0" /><circle cx="576.8681" cy="66.3484" r="2.3917" stroke-width="0.0" /><circle cx="576.8681" cy="75.3484" r="2.3917" stroke-width="0.0" /><circle cx="576.8681" cy="84.3484" r="2.3917" stroke-width="0.0" /><circle cx="576.8681" cy="93.3484" r="2.3917" stroke-width="0.0" /><circle cx="576.8681" cy="102.3484" r="2.3917" stroke-width="0.0" /><circle cx="576.8681" cy="111.3484" r="2.3917" stroke-width="0.0" /><circle cx="576.8681" cy="120.3484" r="2.3917" stroke-width="0.0" /><circle cx="585.8681" cy="57.3484" r="2.3917" stroke-width="0.0" /><circle cx="585.8681" cy="66.3484" r="2.3917" stroke-width="0.0" /><circle cx="585.8681" cy="75.3484" r="2.3917" stroke-width="0.0" /><circle cx="585.8681" cy="84.3484" r="2.3917" stroke-width="0.0" /><circle cx="585.8681" cy="93.3484" r="2.3917" stroke-width="0.0" /><circle cx="585.8681" cy="102.3484" r="2.3917" stroke-width="0.0" /><circle cx="585.8681" cy="111.3484" r="2.3917" stroke-width="0.0" /><circle cx="585.8681" cy="120.3484" r="2.3917" stroke-width="0.0" /><circle cx="148.9429" cy="94.1634" r="2.0728" stroke-width="0.0" /><circle cx="166.9429" cy="94.1634" r="2.0728" stroke-width="0.0" /><circle cx="641.6043" cy="71.8051" r="1.8602" stroke-width="0.0" /><circle cx="641.6043" cy="98.8051" r="1.8602" stroke-width="0.0" /><circle cx="191.6043" cy="127.8248" r="5.6693" stroke-width="0.0" /><circle cx="293.4035" cy="57.3484" r="2.3917" stroke-width="0.0" /><circle cx="293.4035" cy="66.3484" r="2.3917" stroke-width="0.0" /><circle cx="293.4035" cy="75.3484" r="2.3917" stroke-width="0.0" /><circle cx="293.4035" cy="84.3484" r="2.3917" stroke-width="0.0" /><circle cx="293.4035" cy="93.3484" r="2.3917" stroke-width="0.0" /><circle cx="293.4035" cy="102.3484" r="2.3917" stroke-width="0.0" /><circle cx="293.4035" cy="111.3484" r="2.3917" stroke-width="0.0" /><circle cx="293.4035" cy="120.3484" r="2.3917" stroke-width="0.0" /><circle cx="302.4035" cy="57.3484" r="2.3917" stroke-width="0.0" /><circle cx="302.4035" cy="66.3484" r="2.3917" stroke-width="0.0" /><circle cx="302.4035" cy="75.3484" r="2.3917" stroke-width="0.0" /><circle cx="302.4035" cy="84.3484" r="2.3917" stroke-width="0.0" /><circle cx="302.4035" cy="93.3484" r="2.3917" stroke-width="0.0" /><circle cx="302.4035" cy="102.3484" r="2.3917" stroke-width="0.0" /><circle cx="302.4035" cy="111.3484" r="2.3917" stroke-width="0.0" /><circle cx="302.4035" cy="120.3484" r="2.3917" stroke-width="0.0" /><circle cx="641.6043" cy="109.0098" r="1.8602" stroke-width="0.0" /><circle cx="641.6043" cy="136.0098" r="1.8602" stroke-width="0.0" /><circle cx="157.9429" cy="41.0138" r="2.3031" stroke-width="0.0" /><circle cx="157.9429" cy="58.7303" r="2.3031" stroke-width="0.0" /><circle cx="157.9429" cy="76.4468" r="2.3031" stroke-width="0.0" /><circle cx="157.9429" cy="94.1634" r="2.3031" stroke-width="0.0" /><circle cx="157.9429" cy="111.8799" r="2.3031" stroke-width="0.0" /><circle cx="157.9429" cy="129.5965" r="2.3031" stroke-width="0.0" /><circle cx="222.5374" cy="57.3484" r="2.3917" stroke-width="0.0" /><circle cx="222.5374" cy="66.3484" r="2.3917" stroke-width="0.0" /><circle cx="222.5374" cy="75.3484" r="2.3917" stroke-width="0.0" /><circle cx="222.5374" cy="84.3484" r="2.3917" stroke-width="0.0" /><circle cx="222.5374" cy="93.3484" r="2.3917" stroke-width="0.0" /><circle cx="222.5374" cy="102.3484" r="2.3917" stroke-width="0.0" /><circle cx="222.5374" cy="111.3484" r="2.3917" stroke-width="0.0" /><circle cx="222.5374" cy="120.3484" r="2.3917" stroke-width="0.0" /><circle cx="231.5374" cy="57.3484" r="2.3917" stroke-width="0.0" /><circle cx="231.5374" cy="66.3484" r="2.3917" stroke-width="0.0" /><circle cx="231.5374" cy="75.3484" r="2.3917" stroke-width="0.0" /><circle cx="231.5374" cy="84.3484" r="2.3917" stroke-width="0.0" /><circle cx="231.5374" cy="93.3484" r="2.3917" stroke-width="0.0" /><circle cx="231.5374" cy="102.3484" r="2.3917" stroke-width="0.0" /><circle cx="231.5374" cy="111.3484" r="2.3917" stroke-width="0.0" /><circle cx="231.5374" cy="120.3484" r="2.3917" stroke-width="0.0" /><circle cx="475.0689" cy="42.7854" r="5.6693" stroke-width="0.0" /><circle cx="658.435" cy="80.8051" r="1.5945" stroke-width="0.0" /><circle cx="658.435" cy="89.8051" r="1.5945" stroke-width="0.0" /><circle cx="333.3366" cy="42.7854" r="5.6693" stroke-width="0.0" /><circle cx="435.1358" cy="57.3484" r="2.3917" stroke-width="0.0" /><circle cx="435.1358" cy="66.3484" r="2.3917" stroke-width="0.0" /><circle cx="435.1358" cy="75.3484" r="2.3917" stroke-width="0.0" /><circle cx="435.1358" cy="84.3484" r="2.3917" stroke-width="0.0" /><circle cx="435.1358" cy="93.3484" r="2.3917" stroke-width="0.0" /><circle cx="435.1358" cy="102.3484" r="2.3917" stroke-width="0.0" /><circle cx="435.1358" cy="111.3484" r="2.3917" stroke-width="0.0" /><circle cx="435.1358" cy="120.3484" r="2.3917" stroke-width="0.0" /><circle cx="444.1358" cy="57.3484" r="2.3917" stroke-width="0.0" /><circle cx="444.1358" cy="66.3484" r="2.3917" stroke-width="0.0" /><circle cx="444.1358" cy="75.3484" r="2.3917" stroke-width="0.0" /><circle cx="444.1358" cy="84.3484" r="2.3917" stroke-width="0.0" /><circle cx="444.1358" cy="93.3484" r="2.3917" stroke-width="0.0" /><circle cx="444.1358" cy="102.3484" r="2.3917" stroke-width="0.0" /><circle cx="444.1358" cy="111.3484" r="2.3917" stroke-width="0.0" /><circle cx="444.1358" cy="120.3484" r="2.3917" stroke-width="0.0" /><circle cx="148.9429" cy="129.5965" r="2.0728" stroke-width="0.0" /><circle cx="166.9429" cy="129.5965" r="2.0728" stroke-width="0.0" /><circle cx="658.435" cy="43.6004" r="1.5945" stroke-width="0.0" /><circle cx="658.435" cy="52.6004" r="1.5945" stroke-width="0.0" /><circle cx="191.6043" cy="42.7854" r="5.6693" stroke-width="0.0" /><circle cx="749.1082" cy="-12.352" r="3.5433" stroke-width="0.0" /><circle cx="749.1082" cy="5.648" r="3.5433" stroke-width="0.0" /><circle cx="749.1082" cy="23.648" r="3.5433" stroke-width="0.0" /><circle cx="749.1082" cy="41.648" r="3.5433" stroke-width="0.0" /><circle cx="475.0689" cy="127.8248" r="5.6693" stroke-width="0.0" /><circle cx="659.3209" cy="118.0098" r="1.5945" stroke-width="0.0" /><circle cx="659.3209" cy="127.0098" r="1.5945" stroke-width="0.0" /><circle cx="148.9429" cy="58.7303" r="2.0728" stroke-width="0.0" /><circle cx="166.9429" cy="58.7303" r="2.0728" stroke-width="0.0" /><circle cx="641.6043" cy="34.6004" r="1.8602" stroke-width="0.0" /><circle cx="641.6043" cy="61.6004" r="1.8602" stroke-width="0.0" /><circle cx="333.3366" cy="127.8248" r="5.6693" stroke-width="0.0" /><circle cx="148.9429" cy="76.4468" r="2.0728" stroke-width="0.0" /><circle cx="166.9429" cy="76.4468" r="2.0728" stroke-width="0.0" /><circle cx="506.002" cy="57.3484" r="2.3917" stroke-width="0.0" /><circle cx="506.002" cy="66.3484" r="2.3917" stroke-width="0.0" /><circle cx="506.002" cy="75.3484" r="2.3917" stroke-width="0.0" /><circle cx="506.002" cy="84.3484" r="2.3917" stroke-width="0.0" /><circle cx="506.002" cy="93.3484" r="2.3917" stroke-width="0.0" /><circle cx="506.002" cy="102.3484" r="2.3917" stroke-width="0.0" /><circle cx="506.002" cy="111.3484" r="2.3917" stroke-width="0.0" /><circle cx="506.002" cy="120.3484" r="2.3917" stroke-width="0.0" /><circle cx="515.002" cy="57.3484" r="2.3917" stroke-width="0.0" /><circle cx="515.002" cy="66.3484" r="2.3917" stroke-width="0.0" /><circle cx="515.002" cy="75.3484" r="2.3917" stroke-width="0.0" /><circle cx="515.002" cy="84.3484" r="2.3917" stroke-width="0.0" /><circle cx="515.002" cy="93.3484" r="2.3917" stroke-width="0.0" /><circle cx="515.002" cy="102.3484" r="2.3917" stroke-width="0.0" /><circle cx="515.002" cy="111.3484" r="2.3917" stroke-width="0.0" /><circle cx="515.002" cy="120.3484" r="2.3917" stroke-width="0.0" /></g><g id="rulers" stroke="black"><line stroke-width="1.0" x1="331.565" x2="473.2972" y1="150.8563" y2="150.8563" /><text font-family="monospace" font-size="5" stroke-width="0.3" x="402.431092525" y="155.856295525">40.0000mm</text><text font-family="monospace" font-size="5" stroke-width="0.3" x="402.431092525" y="161.856295525">(Δx=40.0000mm)</text><line stroke-width="1.0" x1="669.685" x2="109.8425" y1="3.5433" y2="3.5433" /><text font-family="monospace" font-size="5" stroke-width="0.3" x="389.76377" y="-1.456693">158.0000mm</text><text font-family="monospace" font-size="5" stroke-width="0.3" x="389.76377" y="4.543307">(Δx=158.0000mm)</text><line stroke-width="1.0" x1="473.2972" x2="615.0295" y1="157.9429" y2="157.9429" /><text font-family="monospace" font-size="5" stroke-width="0.3" x="544.163372525" y="162.942909525">40.0000mm</text><text font-family="monospace" font-size="5" stroke-width="0.3" x="544.163372525" y="168.942909525">(Δx=40.0000mm)</text><line stroke-width="1.0" x1="678.809" x2="678.809" y1="127.8248" y2="42.7854" /><text font-family="monospace" font-size="5" stroke-width="0.3" x="683.809038525" y="85.305116025">24.0000mm</text><text font-family="monospace" font-size="5" stroke-width="0.3" x="683.809038525" y="91.305116025">(Δy=24.0000mm)</text><line stroke-width="1.0" x1="189.8327" x2="331.565" y1="157.9429" y2="157.9429" /><text font-family="monospace" font-size="5" stroke-width="0.3" x="260.698812525" y="162.942909525">40.0000mm</text><text font-family="monospace" font-size="5" stroke-width="0.3" x="260.698812525" y="168.942909525">(Δx=40.0000mm)</text><line stroke-width="1.0" x1="3.5433" x2="3.5433" y1="141.7323" y2="28.3465" /><text font-family="monospace" font-size="5" stroke-width="0.3" x="8.543307" y="85.039368">32.0000mm</text><text font-family="monospace" font-size="5" stroke-width="0.3" x="8.543307" y="91.039368">(Δy=32.0000mm)</text></g></svg>